<svg xmlns="http://www.w3.org/2000/svg" width="45" height="36" viewBox="0 0 45 36" fill="none"><g clip-path="url(#clip0_2476_1596)"><path d="M44.7472 18.0147C44.7472 13.237 42.8614 8.65481 39.5046 5.27639C36.1479 1.89798 31.5951 6.26534e-07 26.848 0C22.1008 -6.26532e-07 17.5481 1.89798 14.1913 5.27639C10.8345 8.65481 8.94873 13.237 8.94873 18.0147H14.5423C16.3959 18.0147 17.8414 16.4514 18.5203 14.7155C18.9661 13.5758 19.6424 12.5285 20.5196 11.6455C22.198 9.95635 24.4744 9.00736 26.848 9.00736C29.2216 9.00736 31.498 9.95635 33.1764 11.6455C34.8547 13.3347 35.7976 15.6259 35.7976 18.0147H44.7472Z" fill="url(#paint0_linear_2476_1596)"></path><path d="M34.4361 24.9085C35.3356 22.7229 35.7986 20.3803 35.7986 18.0146H44.7473C44.7473 27.9639 36.7335 36.0293 26.848 36.0293C25.2999 36.0293 23.7976 35.8315 22.365 35.4597C23.1756 35.2495 23.9723 34.9818 24.7491 34.658C26.9207 33.7527 28.8939 32.4258 30.556 30.753C32.2181 29.0801 33.5366 27.0942 34.4361 24.9085Z" fill="#94E03E"></path><path d="M0 18.0146C-3.36269e-07 20.3804 0.462977 22.723 1.3625 24.9086C2.26202 27.0943 3.58047 29.0802 5.24257 30.7531C6.90466 32.4258 8.87787 33.7528 11.0495 34.6581C13.2211 35.5635 15.5487 36.0294 17.8993 36.0294C20.2498 36.0294 22.5773 35.5635 24.749 34.6581C26.9206 33.7528 28.8938 32.4258 30.5559 30.7531C32.218 29.0802 33.5364 27.0943 34.436 24.9086C35.3355 22.723 35.7985 20.3804 35.7985 18.0146H30.2049C28.3514 18.0146 26.9058 19.578 26.2269 21.3138C26.2077 21.3632 26.1878 21.4125 26.1676 21.4617C25.7178 22.5545 25.0587 23.5475 24.2275 24.3839C23.3965 25.2202 22.4099 25.8838 21.3241 26.3365C20.2383 26.7891 19.0746 27.0221 17.8993 27.0221C16.724 27.0221 15.5602 26.7891 14.4744 26.3365C13.3885 25.8838 12.402 25.2202 11.5709 24.3839C10.7398 23.5475 10.0806 22.5545 9.63088 21.4617C9.18111 20.3688 8.94962 19.1975 8.94962 18.0146H0Z" fill="url(#paint1_linear_2476_1596)"></path><path d="M0.00146484 18.0147C0.00146484 8.06544 8.01521 0 17.9006 0C19.4484 0 20.9502 0.197705 22.3827 0.569407C19.309 1.36634 16.4736 2.97912 14.1909 5.2764C10.8342 8.65478 8.94837 13.237 8.94837 18.0147H0.00146484Z" fill="#94E03E"></path></g><defs><linearGradient id="paint0_linear_2476_1596" x1="8.94873" y1="9.00743" x2="44.7472" y2="9.00743" gradientUnits="userSpaceOnUse"><stop stop-color="#71C512"></stop><stop offset="0.757435" stop-color="#94DF3E"></stop></linearGradient><linearGradient id="paint1_linear_2476_1596" x1="1.1736e-06" y1="27.0221" x2="35.7985" y2="27.0221" gradientUnits="userSpaceOnUse"><stop offset="0.267772" stop-color="#94DF3E"></stop><stop offset="1" stop-color="#71C512"></stop></linearGradient><clipPath id="clip0_2476_1596"><rect width="45" height="36" fill="white"></rect></clipPath></defs></svg>