<svg xmlns="http://www.w3.org/2000/svg" width="123" height="32" viewBox="0 0 123 32" fill="none"><g clip-path="url(#clip0_2476_1588)"><path d="M39.7752 16.0131C39.7752 11.7662 38.0989 7.69316 35.1151 4.69013C32.1314 1.68709 28.0845 5.56919e-07 23.8648 0C19.6451 -5.56918e-07 15.5982 1.68709 12.6144 4.69013C9.63062 7.69316 7.95435 11.7662 7.95435 16.0131H12.9264C14.574 16.0131 15.8589 14.6235 16.4624 13.0805C16.8586 12.0674 17.4599 11.1364 18.2396 10.3516C19.7315 8.85008 21.7549 8.00654 23.8648 8.00654C25.9746 8.00654 27.9981 8.85008 29.49 10.3516C30.9819 11.8531 31.82 13.8897 31.82 16.0131H39.7752Z" fill="url(#paint0_linear_2476_1588)"></path><path d="M30.6097 22.1406C31.4093 20.1978 31.8209 18.1155 31.8209 16.0127H39.7753C39.7753 24.8565 32.6519 32.0257 23.8648 32.0257C22.4887 32.0257 21.1533 31.8499 19.8799 31.5194C20.6004 31.3325 21.3086 31.0946 21.9991 30.8068C23.9294 30.0021 25.6834 28.8226 27.1608 27.3356C28.6382 25.8487 29.8102 24.0834 30.6097 22.1406Z" fill="#94E03E"></path><path d="M0 16.0127C-2.98905e-07 18.1156 0.411535 20.1979 1.21111 22.1407C2.01069 24.0835 3.18264 25.8488 4.66006 27.3357C6.13748 28.8226 7.89144 30.0022 9.82177 30.8069C11.7521 31.6117 13.821 32.0258 15.9105 32.0258C17.9998 32.0258 20.0687 31.6117 21.9991 30.8069C23.9294 30.0022 25.6834 28.8226 27.1608 27.3357C28.6383 25.8488 29.8102 24.0835 30.6097 22.1407C31.4093 20.1979 31.8209 18.1156 31.8209 16.0127H26.8488C25.2012 16.0127 23.9163 17.4023 23.3128 18.9452C23.2957 18.9892 23.2781 19.033 23.2601 19.0767C22.8603 20.0481 22.2744 20.9308 21.5356 21.6742C20.7969 22.4177 19.9199 23.0075 18.9548 23.4099C17.9896 23.8122 16.9552 24.0193 15.9105 24.0193C14.8657 24.0193 13.8313 23.8122 12.8662 23.4099C11.9009 23.0075 11.024 22.4177 10.2852 21.6742C9.54653 20.9308 8.96056 20.0481 8.56078 19.0767C8.16098 18.1053 7.95522 17.0642 7.95522 16.0127H0Z" fill="url(#paint1_linear_2476_1588)"></path><path d="M0.00146484 16.0131C0.00146484 7.16928 7.12479 0 15.9118 0C17.2876 0 18.6226 0.175738 19.8959 0.50614C17.1637 1.21452 14.6433 2.6481 12.6143 4.69014C9.63052 7.69314 7.95427 11.7662 7.95427 16.0131H0.00146484Z" fill="#94E03E"></path></g><path d="M65.3164 7.96582C65.3164 8.19434 65.2783 8.4694 65.2021 8.79102C65.1344 9.11263 65.0329 9.44694 64.8975 9.79395C64.762 10.141 64.597 10.488 64.4023 10.835C64.2161 11.1735 64.0003 11.4824 63.7549 11.7617C63.5094 12.0326 63.2428 12.2526 62.9551 12.4219C62.6673 12.5911 62.3584 12.6758 62.0283 12.6758C61.9521 12.6758 61.8506 12.6715 61.7236 12.6631C61.6051 12.6462 61.4824 12.6165 61.3555 12.5742C61.237 12.5234 61.1312 12.4515 61.0381 12.3584C60.9535 12.2653 60.9111 12.1426 60.9111 11.9902C60.9111 11.8887 60.9365 11.7702 60.9873 11.6348C61.0465 11.4993 61.1481 11.3428 61.292 11.165C61.4443 10.9958 61.6094 10.7969 61.7871 10.5684C61.9648 10.3314 62.1257 10.0859 62.2695 9.83203C62.4134 9.57812 62.5319 9.32845 62.625 9.08301C62.7266 8.83757 62.7773 8.61751 62.7773 8.42285C62.7773 8.17741 62.7181 7.98275 62.5996 7.83887C62.4896 7.68652 62.2949 7.61035 62.0156 7.61035C61.6517 7.61035 61.2412 7.72884 60.7842 7.96582C60.3271 8.2028 59.849 8.52865 59.3496 8.94336C58.8503 9.35807 58.3424 9.84473 57.8262 10.4033C57.3099 10.9535 56.8105 11.5459 56.3281 12.1807C55.8457 12.807 55.3887 13.4629 54.957 14.1484C54.5339 14.8255 54.1615 15.4984 53.8398 16.167C53.5267 16.8271 53.277 17.4661 53.0908 18.084C52.9131 18.6934 52.8242 19.2477 52.8242 19.7471C52.8242 20.3649 52.9893 20.86 53.3193 21.2324C53.6494 21.6048 54.1953 21.791 54.957 21.791C55.3125 21.791 55.8415 21.6556 56.5439 21.3848C57.2464 21.1055 57.8304 20.8304 58.2959 20.5596C58.7699 20.2803 59.2438 19.9756 59.7178 19.6455C60.2002 19.307 60.6572 18.9854 61.0889 18.6807C61.5205 18.3675 61.9141 18.0882 62.2695 17.8428C62.625 17.5889 62.917 17.4111 63.1455 17.3096C63.1878 17.2757 63.2386 17.2588 63.2979 17.2588C63.4248 17.2588 63.5094 17.3646 63.5518 17.5762C63.6025 17.7793 63.6279 18.012 63.6279 18.2744C63.6279 18.4183 63.6068 18.596 63.5645 18.8076C63.5306 19.0107 63.4121 19.2477 63.209 19.5186C63.1159 19.6286 62.9424 19.8148 62.6885 20.0771C62.4346 20.3395 62.1172 20.6357 61.7363 20.9658C61.3555 21.2959 60.9196 21.6387 60.4287 21.9941C59.9378 22.3496 59.4046 22.6755 58.8291 22.9717C58.262 23.2679 57.5257 23.5599 56.6201 23.8477C55.723 24.1354 54.9401 24.2793 54.2715 24.2793C53.4844 24.2793 52.8115 24.1862 52.2529 24C51.6943 23.8053 51.2373 23.5387 50.8818 23.2002C50.5264 22.8617 50.264 22.4596 50.0947 21.9941C49.9339 21.5202 49.8535 21.0039 49.8535 20.4453C49.8535 19.7513 49.9593 19.0065 50.1709 18.2109C50.3825 17.4154 50.6745 16.6071 51.0469 15.7861C51.4277 14.9652 51.8763 14.1442 52.3926 13.3232C52.9173 12.5023 53.4886 11.7194 54.1064 10.9746C54.7327 10.2214 55.3971 9.52311 56.0996 8.87988C56.8021 8.23665 57.5215 7.67806 58.2578 7.2041C58.9941 6.73014 59.7347 6.35775 60.4795 6.08691C61.2243 5.81608 61.9564 5.68066 62.6758 5.68066C63.0312 5.68066 63.3698 5.72298 63.6914 5.80762C64.013 5.88379 64.2923 6.01074 64.5293 6.18848C64.7747 6.36621 64.9652 6.60319 65.1006 6.89941C65.2445 7.18717 65.3164 7.54264 65.3164 7.96582ZM61.3174 21.9941C61.5205 21.5625 61.7533 21.0843 62.0156 20.5596C62.278 20.0264 62.5404 19.5016 62.8027 18.9854C63.0736 18.4606 63.3275 17.9655 63.5645 17.5C63.8014 17.026 64.0003 16.624 64.1611 16.2939L68.3506 8.05469C68.4014 7.94466 68.4775 7.83887 68.5791 7.7373C68.6891 7.63574 68.8118 7.54688 68.9473 7.4707C69.0827 7.38607 69.2266 7.32259 69.3789 7.28027C69.5312 7.22949 69.6836 7.2041 69.8359 7.2041C70.2083 7.2041 70.4665 7.27604 70.6104 7.41992C70.7542 7.55534 70.8262 7.72461 70.8262 7.92773C70.8262 8.11393 70.7796 8.31283 70.6865 8.52441C70.5934 8.72754 70.4876 8.91797 70.3691 9.0957C69.9967 9.73047 69.637 10.3737 69.29 11.0254C68.9515 11.6686 68.6087 12.3203 68.2617 12.9805C67.9232 13.6322 67.5804 14.2839 67.2334 14.9355C66.8864 15.5788 66.5225 16.2178 66.1416 16.8525C66.3786 16.624 66.6283 16.387 66.8906 16.1416C67.1615 15.8962 67.4535 15.6719 67.7666 15.4688C68.0798 15.2656 68.4225 15.1006 68.7949 14.9736C69.1673 14.8382 69.582 14.7705 70.0391 14.7705C70.3099 14.7705 70.568 14.7959 70.8135 14.8467C71.0589 14.8975 71.2747 14.9821 71.4609 15.1006C71.6471 15.2106 71.7952 15.3672 71.9053 15.5703C72.0153 15.765 72.0703 16.0062 72.0703 16.2939C72.0703 16.6748 72.0111 17.026 71.8926 17.3477C71.7826 17.6608 71.6387 17.9613 71.4609 18.249C71.2832 18.5283 71.0885 18.7992 70.877 19.0615C70.6654 19.3154 70.4622 19.5778 70.2676 19.8486C70.0814 20.111 69.9163 20.3861 69.7725 20.6738C69.637 20.9616 69.5524 21.2747 69.5186 21.6133C69.5186 21.6302 69.5143 21.6471 69.5059 21.6641C69.5059 21.681 69.5059 21.6979 69.5059 21.7148C69.5059 21.8841 69.5609 21.9899 69.6709 22.0322C69.7894 22.0745 69.9375 22.0957 70.1152 22.0957C70.3438 22.0957 70.5892 22.0534 70.8516 21.9688C71.1139 21.8757 71.3763 21.7572 71.6387 21.6133C71.9095 21.4609 72.1761 21.2917 72.4385 21.1055C72.7093 20.9193 72.9632 20.7288 73.2002 20.5342C73.4456 20.3395 73.6699 20.1533 73.873 19.9756C74.0762 19.7894 74.2497 19.6286 74.3936 19.4932C74.4697 19.4255 74.5501 19.3747 74.6348 19.3408C74.7194 19.307 74.7998 19.29 74.876 19.29C75.0283 19.29 75.1553 19.3493 75.2568 19.4678C75.3669 19.5778 75.4219 19.7301 75.4219 19.9248C75.4219 20.1025 75.3584 20.3057 75.2314 20.5342C75.113 20.7627 74.9056 20.9912 74.6094 21.2197C74.1439 21.626 73.6699 22.0153 73.1875 22.3877C72.7051 22.7601 72.2184 23.0902 71.7275 23.3779C71.2367 23.6657 70.7458 23.8942 70.2549 24.0635C69.7725 24.2327 69.2985 24.3174 68.833 24.3174C68.2321 24.3174 67.7497 24.182 67.3857 23.9111C67.0218 23.6318 66.8398 23.196 66.8398 22.6035C66.8398 22.1719 66.9118 21.7656 67.0557 21.3848C67.208 20.9954 67.39 20.623 67.6016 20.2676C67.8216 19.9036 68.0544 19.5566 68.2998 19.2266C68.5452 18.888 68.7611 18.5579 68.9473 18.2363C69.0488 18.0924 69.125 17.9613 69.1758 17.8428C69.235 17.7158 69.2646 17.5804 69.2646 17.4365C69.2646 17.3096 69.2308 17.208 69.1631 17.1318C69.0954 17.0472 68.9896 17.0049 68.8457 17.0049C68.3464 17.0049 67.8851 17.1276 67.4619 17.373C67.0387 17.6185 66.6494 17.9316 66.2939 18.3125C65.9385 18.6934 65.6084 19.1123 65.3037 19.5693C64.999 20.0179 64.7155 20.4495 64.4531 20.8643C64.3346 21.0505 64.2119 21.2663 64.085 21.5117C63.9665 21.7487 63.8395 21.9941 63.7041 22.248C63.5771 22.502 63.4417 22.7559 63.2979 23.0098C63.154 23.2552 63.0016 23.4753 62.8408 23.6699C62.6885 23.8646 62.5234 24.0212 62.3457 24.1396C62.1764 24.2581 61.9987 24.3174 61.8125 24.3174C61.5163 24.3174 61.2878 24.2285 61.127 24.0508C60.9661 23.8815 60.8857 23.6657 60.8857 23.4033C60.8857 23.2087 60.9196 23.0055 60.9873 22.7939C61.055 22.5739 61.165 22.3073 61.3174 21.9941ZM78.9512 17.0684C78.5534 17.0684 78.1683 17.1699 77.7959 17.373C77.4235 17.5762 77.0934 17.8428 76.8057 18.1729C76.5179 18.5029 76.2894 18.8753 76.1201 19.29C75.9508 19.6963 75.8662 20.1068 75.8662 20.5215C75.8662 20.6908 75.8747 20.8685 75.8916 21.0547C75.917 21.2324 75.9678 21.3975 76.0439 21.5498C76.1201 21.7021 76.2259 21.8291 76.3613 21.9307C76.5052 22.0322 76.6956 22.083 76.9326 22.083C77.1188 22.083 77.3346 22.0026 77.5801 21.8418C77.834 21.6725 78.0921 21.4609 78.3545 21.207C78.6253 20.9447 78.8877 20.6611 79.1416 20.3564C79.3955 20.0433 79.624 19.7386 79.8271 19.4424C80.0303 19.1462 80.1953 18.8796 80.3223 18.6426C80.4492 18.4056 80.5127 18.2321 80.5127 18.1221C80.5127 17.9613 80.4577 17.8174 80.3477 17.6904C80.2376 17.555 80.1022 17.4408 79.9414 17.3477C79.7806 17.2546 79.6071 17.1868 79.4209 17.1445C79.2432 17.0938 79.0866 17.0684 78.9512 17.0684ZM87.749 20.3438C87.5967 20.4876 87.3936 20.6865 87.1396 20.9404C86.8857 21.1943 86.5938 21.4694 86.2637 21.7656C85.9421 22.0618 85.5951 22.3623 85.2227 22.667C84.8587 22.9632 84.4821 23.234 84.0928 23.4795C83.7119 23.7249 83.3353 23.9238 82.9629 24.0762C82.5905 24.237 82.2393 24.3174 81.9092 24.3174C81.613 24.3174 81.359 24.2539 81.1475 24.127C80.9359 24 80.7581 23.835 80.6143 23.6318C80.4788 23.4287 80.3773 23.2002 80.3096 22.9463C80.2419 22.6839 80.208 22.4173 80.208 22.1465C80.208 21.9688 80.2207 21.7952 80.2461 21.626C80.2715 21.4482 80.3138 21.2832 80.373 21.1309C80.1107 21.4863 79.8102 21.8545 79.4717 22.2354C79.1416 22.6077 78.7819 22.9505 78.3926 23.2637C78.0117 23.5684 77.6097 23.818 77.1865 24.0127C76.7718 24.2158 76.3486 24.3174 75.917 24.3174C75.6969 24.3174 75.4388 24.2708 75.1426 24.1777C74.8548 24.0931 74.5798 23.9492 74.3174 23.7461C74.055 23.543 73.835 23.2806 73.6572 22.959C73.4795 22.6374 73.3906 22.2438 73.3906 21.7783C73.3906 21.4313 73.4414 21.0166 73.543 20.5342C73.653 20.0518 73.8138 19.5524 74.0254 19.0361C74.2454 18.5114 74.5205 17.9951 74.8506 17.4873C75.1891 16.9795 75.5869 16.5267 76.0439 16.1289C76.501 15.7227 77.0215 15.3968 77.6055 15.1514C78.1895 14.8975 78.8411 14.7705 79.5605 14.7705C79.9329 14.7705 80.2588 14.8171 80.5381 14.9102C80.8174 15.0033 81.0544 15.1048 81.249 15.2148C81.4691 15.3503 81.6637 15.4984 81.833 15.6592C81.9769 15.583 82.125 15.5111 82.2773 15.4434C82.4043 15.3841 82.5355 15.3333 82.6709 15.291C82.8148 15.2402 82.9375 15.2148 83.0391 15.2148C83.3607 15.2148 83.623 15.3037 83.8262 15.4814C84.0293 15.6592 84.1309 15.8538 84.1309 16.0654C84.1309 16.1247 84.1266 16.1712 84.1182 16.2051C84.0758 16.3659 84.0081 16.569 83.915 16.8145C83.8304 17.0599 83.7331 17.335 83.623 17.6396C83.513 17.9359 83.3988 18.249 83.2803 18.5791C83.1702 18.9007 83.0687 19.2181 82.9756 19.5312C82.8825 19.8444 82.8063 20.1406 82.7471 20.4199C82.6878 20.6908 82.6582 20.9235 82.6582 21.1182C82.6582 21.3721 82.7005 21.5837 82.7852 21.7529C82.8698 21.9137 83.0137 21.9941 83.2168 21.9941C83.3438 21.9941 83.4919 21.9561 83.6611 21.8799C83.8389 21.7952 84.0293 21.6852 84.2324 21.5498C84.4355 21.4144 84.6429 21.262 84.8545 21.0928C85.0745 20.915 85.2861 20.7373 85.4893 20.5596C85.9632 20.1364 86.4668 19.654 87 19.1123C87.1354 19.0023 87.2666 18.9473 87.3936 18.9473C87.5628 18.9473 87.7025 19.0319 87.8125 19.2012C87.931 19.362 87.9902 19.5439 87.9902 19.7471C87.9902 19.984 87.9098 20.1829 87.749 20.3438ZM90.8594 16.5986C91.1895 16.3955 91.528 16.2093 91.875 16.04C92.2305 15.8708 92.5732 15.7269 92.9033 15.6084C93.2334 15.4814 93.5465 15.3841 93.8428 15.3164C94.1475 15.2402 94.4183 15.2021 94.6553 15.2021C95.0361 15.2021 95.3281 15.2952 95.5312 15.4814C95.7428 15.6592 95.8486 15.9639 95.8486 16.3955C95.8486 16.4886 95.8444 16.5902 95.8359 16.7002C95.8275 16.8018 95.8105 16.9118 95.7852 17.0303C95.7428 17.2503 95.6159 17.5085 95.4043 17.8047C95.1927 18.1009 94.943 18.4098 94.6553 18.7314C94.376 19.0531 94.0713 19.3789 93.7412 19.709C93.4196 20.0306 93.1191 20.3311 92.8398 20.6104C92.569 20.8812 92.3405 21.1182 92.1543 21.3213C91.9766 21.5244 91.8877 21.6641 91.8877 21.7402C91.8877 21.8079 91.8919 21.8545 91.9004 21.8799C91.9089 21.9053 91.9469 21.918 92.0146 21.918C92.4717 21.7233 92.9795 21.4906 93.5381 21.2197C94.1051 20.9404 94.668 20.6569 95.2266 20.3691C95.7852 20.0814 96.3141 19.8021 96.8135 19.5312C97.3128 19.252 97.736 19.0107 98.083 18.8076C98.1592 18.7653 98.2354 18.7314 98.3115 18.7061C98.3962 18.6722 98.4723 18.6553 98.54 18.6553C98.6924 18.6553 98.8193 18.7061 98.9209 18.8076C99.0225 18.9092 99.0732 19.0446 99.0732 19.2139C99.0732 19.4085 98.9886 19.6328 98.8193 19.8867C98.6585 20.1322 98.3835 20.3903 97.9941 20.6611C97.6979 20.8473 97.3636 21.0589 96.9912 21.2959C96.6273 21.5244 96.2422 21.7656 95.8359 22.0195C95.4382 22.265 95.0319 22.5062 94.6172 22.7432C94.2109 22.9801 93.8174 23.1917 93.4365 23.3779C93.0557 23.5641 92.696 23.7165 92.3574 23.835C92.0273 23.945 91.7396 24 91.4941 24C90.9102 24 90.4701 23.8604 90.1738 23.5811C89.8861 23.3018 89.7422 22.9421 89.7422 22.502C89.7422 22.4342 89.7464 22.3835 89.7549 22.3496C89.8141 21.9772 89.9242 21.6175 90.085 21.2705C90.2458 20.9235 90.4277 20.5934 90.6309 20.2803C90.834 19.9671 91.0456 19.6709 91.2656 19.3916C91.4857 19.1038 91.6846 18.8372 91.8623 18.5918C92.0485 18.3379 92.2008 18.1051 92.3193 17.8936C92.4378 17.682 92.4971 17.4873 92.4971 17.3096C92.4971 17.2673 92.4886 17.2249 92.4717 17.1826C92.4548 17.1403 92.4167 17.1191 92.3574 17.1191C92.2559 17.1191 92.0866 17.1572 91.8496 17.2334C91.6211 17.3096 91.3757 17.4111 91.1133 17.5381C90.8509 17.665 90.6012 17.8132 90.3643 17.9824C90.1273 18.1432 89.958 18.3167 89.8564 18.5029C89.721 18.7399 89.5645 19.0404 89.3867 19.4043C89.209 19.7682 89.0228 20.1491 88.8281 20.5469C88.6419 20.9447 88.46 21.3382 88.2822 21.7275C88.1045 22.1169 87.9521 22.4512 87.8252 22.7305C87.7236 22.9759 87.5882 23.196 87.4189 23.3906C87.2581 23.5853 87.0804 23.7503 86.8857 23.8857C86.6911 24.0212 86.4922 24.127 86.2891 24.2031C86.0859 24.2793 85.8997 24.3174 85.7305 24.3174C85.5358 24.3174 85.3792 24.2666 85.2607 24.165C85.1507 24.0635 85.0957 23.8984 85.0957 23.6699C85.0957 23.5768 85.1084 23.4626 85.1338 23.3271C85.1676 23.1833 85.2311 23.0267 85.3242 22.8574C85.4766 22.5697 85.6289 22.2565 85.7812 21.918C85.9421 21.5794 86.124 21.1943 86.3271 20.7627C86.5303 20.3226 86.763 19.8232 87.0254 19.2646C87.2962 18.6976 87.6136 18.0459 87.9775 17.3096C87.859 17.208 87.7575 17.0853 87.6729 16.9414C87.5967 16.7891 87.5586 16.6029 87.5586 16.3828C87.5586 16.1797 87.6009 16.0062 87.6855 15.8623C87.7702 15.71 87.8844 15.5872 88.0283 15.4941C88.1722 15.401 88.3372 15.3333 88.5234 15.291C88.7181 15.2402 88.9212 15.2148 89.1328 15.2148C89.3529 15.2148 89.5729 15.236 89.793 15.2783C90.013 15.3122 90.2077 15.3672 90.377 15.4434C90.5547 15.5195 90.6986 15.6126 90.8086 15.7227C90.9186 15.8327 90.9736 15.9596 90.9736 16.1035C90.9736 16.1289 90.9652 16.1628 90.9482 16.2051C90.9313 16.2474 90.9102 16.2939 90.8848 16.3447C90.8678 16.3955 90.8509 16.4421 90.834 16.4844C90.8171 16.5267 90.8086 16.5605 90.8086 16.5859C90.8086 16.6029 90.8128 16.6113 90.8213 16.6113H90.834L90.8594 16.5986ZM100.203 13.0186C100.203 12.8239 100.237 12.625 100.305 12.4219C100.381 12.2103 100.491 12.0199 100.635 11.8506C100.779 11.6813 100.956 11.5417 101.168 11.4316C101.388 11.3216 101.646 11.2666 101.942 11.2666C102.433 11.2666 102.776 11.3639 102.971 11.5586C103.165 11.7448 103.263 11.9818 103.263 12.2695C103.263 12.4303 103.229 12.6081 103.161 12.8027C103.102 12.9974 103.009 13.1794 102.882 13.3486C102.755 13.5094 102.59 13.6449 102.387 13.7549C102.184 13.8649 101.942 13.9199 101.663 13.9199C101.138 13.9199 100.77 13.8395 100.559 13.6787C100.347 13.5094 100.229 13.2894 100.203 13.0186ZM98.8066 15.875C98.9505 15.638 99.1156 15.4688 99.3018 15.3672C99.488 15.2656 99.6784 15.2148 99.873 15.2148C100.195 15.2148 100.47 15.3206 100.698 15.5322C100.935 15.7354 101.054 15.9977 101.054 16.3193C101.045 16.3955 101.033 16.4717 101.016 16.5479C101.007 16.624 100.982 16.7002 100.939 16.7764C100.821 16.9964 100.724 17.1826 100.647 17.335C100.571 17.4873 100.499 17.6312 100.432 17.7666C100.372 17.8936 100.313 18.0205 100.254 18.1475C100.195 18.2744 100.123 18.4268 100.038 18.6045C99.9365 18.8161 99.8223 19.0488 99.6953 19.3027C99.5684 19.5482 99.4456 19.8021 99.3271 20.0645C99.2171 20.3268 99.1198 20.585 99.0352 20.8389C98.959 21.0928 98.9209 21.3255 98.9209 21.5371C98.9209 21.7656 98.9759 21.918 99.0859 21.9941C99.2044 22.0618 99.3695 22.0957 99.5811 22.0957C99.818 22.0957 100.063 22.0449 100.317 21.9434C100.58 21.8418 100.842 21.7106 101.104 21.5498C101.367 21.389 101.625 21.207 101.879 21.0039C102.133 20.7923 102.37 20.5807 102.59 20.3691C102.818 20.1576 103.026 19.9544 103.212 19.7598C103.407 19.5651 103.567 19.3916 103.694 19.2393C103.864 19.0785 104.033 18.998 104.202 18.998C104.354 18.998 104.477 19.0658 104.57 19.2012C104.672 19.3366 104.723 19.5101 104.723 19.7217C104.723 19.9163 104.672 20.1237 104.57 20.3438C104.477 20.5638 104.321 20.7712 104.101 20.9658C103.669 21.4059 103.229 21.8291 102.78 22.2354C102.332 22.6331 101.87 22.9886 101.396 23.3018C100.931 23.6064 100.461 23.8519 99.9873 24.0381C99.5133 24.2243 99.0352 24.3174 98.5527 24.3174C97.8672 24.3174 97.3255 24.1439 96.9277 23.7969C96.5384 23.4414 96.3438 22.8913 96.3438 22.1465C96.3438 21.7572 96.3988 21.3763 96.5088 21.0039C96.6188 20.6315 96.75 20.2718 96.9023 19.9248C97.0547 19.5693 97.2155 19.2308 97.3848 18.9092C97.554 18.5791 97.6979 18.266 97.8164 17.9697C97.8587 17.8597 97.9307 17.6904 98.0322 17.4619C98.1423 17.2334 98.2565 17.0007 98.375 16.7637C98.5104 16.4844 98.6543 16.1882 98.8066 15.875ZM107.021 16.9414C106.707 17.5508 106.411 18.1475 106.132 18.7314C105.853 19.307 105.59 19.8402 105.345 20.3311C105.243 20.5342 105.142 20.7712 105.04 21.042C104.947 21.3044 104.9 21.5371 104.9 21.7402C104.9 21.8587 104.926 21.9518 104.977 22.0195C105.036 22.0872 105.129 22.1211 105.256 22.1211C105.434 22.1211 105.658 22.0703 105.929 21.9688C106.2 21.8587 106.492 21.7191 106.805 21.5498C107.118 21.3721 107.448 21.1732 107.795 20.9531C108.142 20.7246 108.48 20.4919 108.811 20.2549C109.149 20.0094 109.471 19.7682 109.775 19.5312C110.08 19.2858 110.351 19.0615 110.588 18.8584C110.723 18.7653 110.85 18.7188 110.969 18.7188C111.113 18.7188 111.231 18.7822 111.324 18.9092C111.417 19.0361 111.464 19.1969 111.464 19.3916C111.464 19.5863 111.417 19.7852 111.324 19.9883C111.231 20.1914 111.062 20.3903 110.816 20.585C110.266 21.0843 109.708 21.5583 109.141 22.0068C108.582 22.4554 108.023 22.8532 107.465 23.2002C106.915 23.5387 106.369 23.8096 105.827 24.0127C105.285 24.2158 104.761 24.3174 104.253 24.3174C103.914 24.3174 103.631 24.2708 103.402 24.1777C103.174 24.0931 102.988 23.9746 102.844 23.8223C102.708 23.6615 102.611 23.4795 102.552 23.2764C102.493 23.0648 102.463 22.8405 102.463 22.6035C102.463 22.1803 102.535 21.7402 102.679 21.2832C102.823 20.8262 102.983 20.4157 103.161 20.0518C103.415 19.527 103.665 19.0065 103.91 18.4902C104.164 17.974 104.41 17.4788 104.646 17.0049H104.101C103.627 17.0049 103.301 16.9287 103.123 16.7764C102.945 16.624 102.856 16.4505 102.856 16.2559C102.856 16.1712 102.882 16.0697 102.933 15.9512C102.992 15.8242 103.072 15.71 103.174 15.6084C103.284 15.4984 103.415 15.4053 103.567 15.3291C103.72 15.2529 103.893 15.2148 104.088 15.2148H105.459L108.138 9.89551C108.307 9.57389 108.514 9.34538 108.76 9.20996C109.014 9.06608 109.276 8.99414 109.547 8.99414C109.801 8.99414 110.034 9.06185 110.245 9.19727C110.457 9.33268 110.562 9.55697 110.562 9.87012C110.562 10.0309 110.524 10.196 110.448 10.3652C110.381 10.526 110.287 10.7165 110.169 10.9365C110.093 11.0804 110 11.2539 109.89 11.457C109.78 11.6517 109.661 11.8633 109.534 12.0918C109.416 12.3118 109.289 12.5446 109.153 12.79C109.026 13.0355 108.899 13.2725 108.772 13.501C108.485 14.0426 108.18 14.6139 107.858 15.2148H111.997C112.2 15.2148 112.386 15.2275 112.556 15.2529C112.725 15.2699 112.869 15.3122 112.987 15.3799C113.114 15.4391 113.212 15.5238 113.279 15.6338C113.347 15.7438 113.381 15.8919 113.381 16.0781C113.381 16.1712 113.364 16.2643 113.33 16.3574C113.305 16.4505 113.25 16.5352 113.165 16.6113C113.089 16.6875 112.979 16.751 112.835 16.8018C112.7 16.8525 112.522 16.8864 112.302 16.9033L107.021 16.9414ZM117.608 15.9512C117.845 15.765 118.044 15.6253 118.205 15.5322C118.374 15.4307 118.518 15.3587 118.637 15.3164C118.755 15.2656 118.861 15.236 118.954 15.2275C119.056 15.2191 119.157 15.2148 119.259 15.2148C119.437 15.2148 119.563 15.2826 119.64 15.418C119.716 15.5449 119.754 15.6803 119.754 15.8242C119.754 15.9427 119.733 16.0527 119.69 16.1543L116.847 22.083C117.253 21.7783 117.718 21.4821 118.243 21.1943C118.776 20.8981 119.284 20.6357 119.767 20.4072C120.257 20.1702 120.676 19.9798 121.023 19.8359C121.379 19.6921 121.582 19.6201 121.633 19.6201C121.844 19.6201 122.031 19.7005 122.191 19.8613C122.352 20.0221 122.433 20.2253 122.433 20.4707C122.433 20.6908 122.348 20.9235 122.179 21.1689C122.018 21.4144 121.73 21.6514 121.315 21.8799C120.723 22.21 120.207 22.4935 119.767 22.7305C119.326 22.959 118.937 23.1663 118.599 23.3525C118.26 23.5387 117.96 23.708 117.697 23.8604C117.435 24.0127 117.185 24.1693 116.948 24.3301C116.72 24.4909 116.491 24.6602 116.263 24.8379C116.043 25.0241 115.801 25.2399 115.539 25.4854C115.344 25.9932 115.15 26.4798 114.955 26.9453C114.769 27.4108 114.595 27.8213 114.435 28.1768C114.282 28.5322 114.155 28.82 114.054 29.04C113.952 29.2601 113.897 29.3786 113.889 29.3955C113.203 30.8174 112.45 31.5283 111.629 31.5283C111.29 31.5283 111.015 31.4141 110.804 31.1855C110.592 30.9655 110.486 30.665 110.486 30.2842C110.486 29.9287 110.529 29.5732 110.613 29.2178C110.706 28.8708 110.863 28.4857 111.083 28.0625C111.312 27.6393 111.608 27.1654 111.972 26.6406C112.344 26.1243 112.81 25.515 113.368 24.8125L115.907 19.6709C114.638 21.1774 113.487 22.3285 112.454 23.124C111.422 23.9196 110.457 24.3174 109.56 24.3174C109.272 24.3174 109.026 24.2497 108.823 24.1143C108.62 23.9873 108.519 23.7715 108.519 23.4668C108.519 23.0436 108.62 22.5654 108.823 22.0322C108.942 21.7445 109.06 21.4821 109.179 21.2451C109.297 20.9997 109.42 20.7585 109.547 20.5215C109.674 20.276 109.805 20.0137 109.94 19.7344C110.084 19.4551 110.237 19.1419 110.397 18.7949C110.567 18.4395 110.749 18.0332 110.943 17.5762C111.146 17.1107 111.371 16.569 111.616 15.9512C111.785 15.6211 112.006 15.3841 112.276 15.2402C112.547 15.0879 112.81 15.0117 113.063 15.0117C113.326 15.0117 113.546 15.0752 113.724 15.2021C113.91 15.3206 114.003 15.4814 114.003 15.6846C114.003 15.7861 113.986 15.875 113.952 15.9512L111.629 20.7881C111.51 21.0335 111.451 21.2282 111.451 21.3721C111.451 21.499 111.502 21.5625 111.604 21.5625C111.697 21.5625 111.815 21.516 111.959 21.4229C112.103 21.3298 112.238 21.224 112.365 21.1055L117.608 15.9512Z" fill="#2C3A04"></path><defs><linearGradient id="paint0_linear_2476_1588" x1="7.95435" y1="8.00661" x2="39.7752" y2="8.00661" gradientUnits="userSpaceOnUse"><stop stop-color="#71C512"></stop><stop offset="0.757435" stop-color="#94DF3E"></stop></linearGradient><linearGradient id="paint1_linear_2476_1588" x1="1.0432e-06" y1="24.0193" x2="31.8209" y2="24.0193" gradientUnits="userSpaceOnUse"><stop offset="0.267772" stop-color="#94DF3E"></stop><stop offset="1" stop-color="#71C512"></stop></linearGradient><clipPath id="clip0_2476_1588"><rect width="40" height="32" fill="white"></rect></clipPath></defs></svg>