<svg xmlns="http://www.w3.org/2000/svg" width="150" height="38" viewBox="0 0 150 38" fill="none"><g clip-path="url(#clip0_2476_1580)"><path d="M44.7472 18.0147C44.7472 13.237 42.8614 8.65481 39.5046 5.27639C36.1479 1.89798 31.5951 6.26534e-07 26.848 0C22.1008 -6.26532e-07 17.5481 1.89798 14.1913 5.27639C10.8345 8.65481 8.94873 13.237 8.94873 18.0147H14.5423C16.3959 18.0147 17.8414 16.4514 18.5203 14.7155C18.9661 13.5758 19.6424 12.5285 20.5196 11.6455C22.198 9.95635 24.4744 9.00736 26.848 9.00736C29.2216 9.00736 31.498 9.95635 33.1764 11.6455C34.8547 13.3347 35.7976 15.6259 35.7976 18.0147H44.7472Z" fill="url(#paint0_linear_2476_1580)"></path><path d="M34.4361 24.9085C35.3356 22.7229 35.7986 20.3803 35.7986 18.0146H44.7473C44.7473 27.9639 36.7335 36.0293 26.848 36.0293C25.2999 36.0293 23.7976 35.8315 22.365 35.4597C23.1756 35.2495 23.9723 34.9818 24.7491 34.658C26.9207 33.7527 28.8939 32.4258 30.556 30.753C32.2181 29.0801 33.5366 27.0942 34.4361 24.9085Z" fill="white"></path><path d="M0 18.0146C-3.36269e-07 20.3804 0.462977 22.723 1.3625 24.9086C2.26202 27.0943 3.58047 29.0802 5.24257 30.7531C6.90466 32.4258 8.87787 33.7528 11.0495 34.6581C13.2211 35.5635 15.5487 36.0294 17.8993 36.0294C20.2498 36.0294 22.5773 35.5635 24.749 34.6581C26.9206 33.7528 28.8938 32.4258 30.5559 30.7531C32.218 29.0802 33.5364 27.0943 34.436 24.9086C35.3355 22.723 35.7985 20.3804 35.7985 18.0146H30.2049C28.3514 18.0146 26.9058 19.578 26.2269 21.3138C26.2077 21.3632 26.1878 21.4125 26.1676 21.4617C25.7178 22.5545 25.0587 23.5475 24.2275 24.3839C23.3965 25.2202 22.4099 25.8838 21.3241 26.3365C20.2383 26.7891 19.0746 27.0221 17.8993 27.0221C16.724 27.0221 15.5602 26.7891 14.4744 26.3365C13.3885 25.8838 12.402 25.2202 11.5709 24.3839C10.7398 23.5475 10.0806 22.5545 9.63088 21.4617C9.18111 20.3688 8.94962 19.1975 8.94962 18.0146H0Z" fill="url(#paint1_linear_2476_1580)"></path><path d="M0.00195312 18.0147C0.00195312 8.06544 8.0157 0 17.9011 0C19.4489 0 20.9507 0.197705 22.3832 0.569407C19.3095 1.36634 16.474 2.97912 14.1914 5.2764C10.8346 8.65478 8.94886 13.237 8.94886 18.0147H0.00195312Z" fill="white"></path></g><path d="M74.9785 7.64893C74.9785 7.93896 74.9302 8.28809 74.8335 8.69629C74.7476 9.10449 74.6187 9.52881 74.4468 9.96924C74.2749 10.4097 74.0654 10.8501 73.8184 11.2905C73.582 11.7202 73.3081 12.1123 72.9966 12.4668C72.6851 12.8105 72.3467 13.0898 71.9814 13.3047C71.6162 13.5195 71.2241 13.627 70.8052 13.627C70.7085 13.627 70.5796 13.6216 70.4185 13.6108C70.2681 13.5894 70.1123 13.5518 69.9512 13.498C69.8008 13.4336 69.6665 13.3423 69.5483 13.2241C69.4409 13.106 69.3872 12.9502 69.3872 12.7568C69.3872 12.6279 69.4194 12.4775 69.4839 12.3057C69.5591 12.1338 69.688 11.9351 69.8706 11.7095C70.064 11.4946 70.2734 11.2422 70.499 10.9521C70.7246 10.6514 70.9287 10.3398 71.1113 10.0176C71.2939 9.69531 71.4443 9.37842 71.5625 9.06689C71.6914 8.75537 71.7559 8.47607 71.7559 8.229C71.7559 7.91748 71.6807 7.67041 71.5303 7.48779C71.3906 7.29443 71.1436 7.19775 70.7891 7.19775C70.3271 7.19775 69.8062 7.34814 69.2261 7.64893C68.646 7.94971 68.0391 8.36328 67.4053 8.88965C66.7715 9.41602 66.127 10.0337 65.4717 10.7427C64.8164 11.4409 64.1826 12.1929 63.5703 12.9985C62.958 13.7935 62.3779 14.626 61.8301 15.4961C61.293 16.3555 60.8203 17.2095 60.4121 18.0581C60.0146 18.896 59.6978 19.707 59.4614 20.4912C59.2358 21.2646 59.123 21.9683 59.123 22.6021C59.123 23.3862 59.3325 24.0146 59.7515 24.4873C60.1704 24.96 60.8633 25.1963 61.8301 25.1963C62.2812 25.1963 62.9526 25.0244 63.8442 24.6807C64.7358 24.3262 65.4771 23.9771 66.0679 23.6333C66.6694 23.2788 67.271 22.8921 67.8726 22.4731C68.4849 22.0435 69.0649 21.6353 69.6128 21.2485C70.1606 20.8511 70.6602 20.4966 71.1113 20.1851C71.5625 19.8628 71.9331 19.6372 72.2231 19.5083C72.2769 19.4653 72.3413 19.4438 72.4165 19.4438C72.5776 19.4438 72.6851 19.5781 72.7388 19.8467C72.8032 20.1045 72.8354 20.3999 72.8354 20.7329C72.8354 20.9155 72.8086 21.1411 72.7549 21.4097C72.7119 21.6675 72.5615 21.9683 72.3037 22.312C72.1855 22.4517 71.9653 22.688 71.6431 23.021C71.3208 23.354 70.918 23.73 70.4346 24.1489C69.9512 24.5679 69.3979 25.0029 68.7749 25.4541C68.1519 25.9053 67.4751 26.3188 66.7446 26.6948C66.0249 27.0708 65.0903 27.4414 63.9409 27.8066C62.8022 28.1719 61.8086 28.3545 60.96 28.3545C59.9609 28.3545 59.1069 28.2363 58.3979 28C57.689 27.7529 57.1089 27.4146 56.6577 26.9849C56.2065 26.5552 55.8735 26.0449 55.6587 25.4541C55.4546 24.8525 55.3525 24.1973 55.3525 23.4883C55.3525 22.6074 55.4868 21.6621 55.7554 20.6523C56.0239 19.6426 56.3945 18.6167 56.8672 17.5747C57.3506 16.5327 57.9199 15.4907 58.5752 14.4487C59.2412 13.4067 59.9663 12.4131 60.7505 11.4678C61.5454 10.5117 62.3887 9.62549 63.2803 8.80908C64.1719 7.99268 65.085 7.28369 66.0195 6.68213C66.9541 6.08057 67.894 5.60791 68.8394 5.26416C69.7847 4.92041 70.7139 4.74854 71.627 4.74854C72.0781 4.74854 72.5078 4.80225 72.916 4.90967C73.3242 5.00635 73.6787 5.16748 73.9795 5.39307C74.291 5.61865 74.5327 5.91943 74.7046 6.29541C74.8872 6.66064 74.9785 7.11182 74.9785 7.64893ZM69.9028 25.4541C70.1606 24.9062 70.4561 24.2993 70.7891 23.6333C71.1221 22.9565 71.4551 22.2905 71.7881 21.6353C72.1318 20.9692 72.4541 20.3408 72.7549 19.75C73.0557 19.1484 73.3081 18.6382 73.5122 18.2192L78.8296 7.76172C78.894 7.62207 78.9907 7.48779 79.1196 7.35889C79.2593 7.22998 79.415 7.11719 79.5869 7.02051C79.7588 6.91309 79.9414 6.83252 80.1348 6.77881C80.3281 6.71436 80.5215 6.68213 80.7148 6.68213C81.1875 6.68213 81.5151 6.77344 81.6978 6.95605C81.8804 7.12793 81.9717 7.34277 81.9717 7.60059C81.9717 7.83691 81.9126 8.08936 81.7944 8.35791C81.6763 8.61572 81.542 8.85742 81.3916 9.08301C80.9189 9.88867 80.4624 10.7051 80.022 11.5322C79.5923 12.3486 79.1572 13.1758 78.7168 14.0137C78.2871 14.8408 77.8521 15.668 77.4116 16.4951C76.9712 17.3115 76.5093 18.1226 76.0259 18.9282C76.3267 18.6382 76.6436 18.3374 76.9766 18.0259C77.3203 17.7144 77.6909 17.4297 78.0884 17.1719C78.4858 16.9141 78.9209 16.7046 79.3936 16.5435C79.8662 16.3716 80.3926 16.2856 80.9727 16.2856C81.3164 16.2856 81.644 16.3179 81.9556 16.3823C82.2671 16.4468 82.541 16.5542 82.7773 16.7046C83.0137 16.8442 83.2017 17.043 83.3413 17.3008C83.481 17.5479 83.5508 17.854 83.5508 18.2192C83.5508 18.7026 83.4756 19.1484 83.3252 19.5566C83.1855 19.9541 83.0029 20.3354 82.7773 20.7007C82.5518 21.0552 82.3047 21.3989 82.0361 21.7319C81.7676 22.0542 81.5098 22.3872 81.2627 22.731C81.0264 23.064 80.8169 23.4131 80.6343 23.7783C80.4624 24.1436 80.355 24.541 80.312 24.9707C80.312 24.9922 80.3066 25.0137 80.2959 25.0352C80.2959 25.0566 80.2959 25.0781 80.2959 25.0996C80.2959 25.3145 80.3657 25.4487 80.5054 25.5024C80.6558 25.5562 80.8438 25.583 81.0693 25.583C81.3594 25.583 81.6709 25.5293 82.0039 25.4219C82.3369 25.3037 82.6699 25.1533 83.0029 24.9707C83.3467 24.7773 83.6851 24.5625 84.0181 24.3262C84.3618 24.0898 84.6841 23.8481 84.9849 23.6011C85.2964 23.354 85.5811 23.1177 85.8389 22.8921C86.0967 22.6558 86.3169 22.4517 86.4995 22.2798C86.5962 22.1938 86.6982 22.1294 86.8057 22.0864C86.9131 22.0435 87.0151 22.022 87.1118 22.022C87.3052 22.022 87.4663 22.0972 87.5952 22.2476C87.7349 22.3872 87.8047 22.5806 87.8047 22.8276C87.8047 23.0532 87.7241 23.311 87.563 23.6011C87.4126 23.8911 87.1494 24.1812 86.7734 24.4712C86.1826 24.9868 85.5811 25.481 84.9688 25.9536C84.3564 26.4263 83.7388 26.8452 83.1157 27.2104C82.4927 27.5757 81.8696 27.8657 81.2466 28.0806C80.6343 28.2954 80.0327 28.4028 79.4419 28.4028C78.6792 28.4028 78.0669 28.231 77.605 27.8872C77.1431 27.5327 76.9121 26.9795 76.9121 26.2275C76.9121 25.6797 77.0034 25.1641 77.186 24.6807C77.3794 24.1865 77.6104 23.7139 77.8789 23.2627C78.1582 22.8008 78.4536 22.3604 78.7651 21.9414C79.0767 21.5117 79.3506 21.0928 79.5869 20.6846C79.7158 20.502 79.8125 20.3354 79.877 20.1851C79.9521 20.0239 79.9897 19.8521 79.9897 19.6694C79.9897 19.5083 79.9468 19.3794 79.8608 19.2827C79.7749 19.1753 79.6406 19.1216 79.458 19.1216C78.8242 19.1216 78.2388 19.2773 77.7017 19.5889C77.1646 19.9004 76.6704 20.2979 76.2192 20.7812C75.7681 21.2646 75.3491 21.7964 74.9624 22.3765C74.5757 22.9458 74.2158 23.4937 73.8828 24.02C73.7324 24.2563 73.5767 24.5303 73.4155 24.8418C73.2651 25.1426 73.104 25.4541 72.9321 25.7764C72.771 26.0986 72.5991 26.4209 72.4165 26.7432C72.2339 27.0547 72.0405 27.334 71.8364 27.5811C71.6431 27.8281 71.4336 28.0269 71.208 28.1772C70.9932 28.3276 70.7676 28.4028 70.5312 28.4028C70.1553 28.4028 69.8652 28.29 69.6611 28.0645C69.457 27.8496 69.355 27.5757 69.355 27.2427C69.355 26.9956 69.3979 26.7378 69.4839 26.4692C69.5698 26.1899 69.7095 25.8516 69.9028 25.4541ZM92.2842 19.2021C91.7793 19.2021 91.2905 19.3311 90.8179 19.5889C90.3452 19.8467 89.9263 20.1851 89.561 20.604C89.1958 21.0229 88.9058 21.4956 88.6909 22.022C88.4761 22.5376 88.3687 23.0586 88.3687 23.585C88.3687 23.7998 88.3794 24.0254 88.4009 24.2617C88.4331 24.4873 88.4976 24.6968 88.5942 24.8901C88.6909 25.0835 88.8252 25.2446 88.9971 25.3735C89.1797 25.5024 89.4214 25.5669 89.7222 25.5669C89.9585 25.5669 90.2324 25.4648 90.5439 25.2607C90.8662 25.0459 91.1938 24.7773 91.5269 24.4551C91.8706 24.1221 92.2036 23.7622 92.5259 23.3755C92.8481 22.978 93.1382 22.5913 93.396 22.2153C93.6538 21.8394 93.8633 21.501 94.0244 21.2002C94.1855 20.8994 94.2661 20.6792 94.2661 20.5396C94.2661 20.3354 94.1963 20.1528 94.0566 19.9917C93.917 19.8198 93.7451 19.6748 93.541 19.5566C93.3369 19.4385 93.1167 19.3525 92.8804 19.2988C92.6548 19.2344 92.4561 19.2021 92.2842 19.2021ZM103.451 23.3594C103.257 23.542 103 23.7944 102.677 24.1167C102.355 24.439 101.984 24.7881 101.565 25.1641C101.157 25.54 100.717 25.9214 100.244 26.3081C99.7822 26.6841 99.3042 27.0278 98.8101 27.3394C98.3267 27.6509 97.8486 27.9033 97.376 28.0967C96.9033 28.3008 96.4575 28.4028 96.0386 28.4028C95.6626 28.4028 95.3403 28.3223 95.0718 28.1611C94.8032 28 94.5776 27.7905 94.395 27.5327C94.2231 27.2749 94.0942 26.9849 94.0083 26.6626C93.9224 26.3296 93.8794 25.9912 93.8794 25.6475C93.8794 25.4219 93.8955 25.2017 93.9277 24.9868C93.96 24.7612 94.0137 24.5518 94.0889 24.3584C93.7559 24.8096 93.3745 25.2769 92.9448 25.7603C92.5259 26.2329 92.0693 26.668 91.5752 27.0654C91.0918 27.4521 90.5815 27.769 90.0444 28.0161C89.5181 28.2739 88.981 28.4028 88.4331 28.4028C88.1538 28.4028 87.8262 28.3438 87.4502 28.2256C87.085 28.1182 86.7358 27.9355 86.4028 27.6777C86.0698 27.4199 85.7905 27.0869 85.5649 26.6787C85.3394 26.2705 85.2266 25.771 85.2266 25.1802C85.2266 24.7397 85.291 24.2134 85.4199 23.6011C85.5596 22.9888 85.7637 22.355 86.0322 21.6997C86.3115 21.0337 86.6606 20.3784 87.0796 19.7339C87.5093 19.0894 88.0142 18.5146 88.5942 18.0098C89.1743 17.4941 89.835 17.0806 90.5762 16.769C91.3174 16.4468 92.1445 16.2856 93.0576 16.2856C93.5303 16.2856 93.9438 16.3447 94.2983 16.4629C94.6528 16.5811 94.9536 16.71 95.2007 16.8496C95.48 17.0215 95.7271 17.2095 95.9419 17.4136C96.1245 17.3169 96.3125 17.2256 96.5059 17.1396C96.667 17.0645 96.8335 17 97.0054 16.9463C97.188 16.8818 97.3438 16.8496 97.4727 16.8496C97.8809 16.8496 98.2139 16.9624 98.4717 17.188C98.7295 17.4136 98.8584 17.6606 98.8584 17.9292C98.8584 18.0044 98.853 18.0635 98.8423 18.1064C98.7886 18.3105 98.7026 18.5684 98.5845 18.8799C98.4771 19.1914 98.3535 19.5405 98.2139 19.9272C98.0742 20.3032 97.9292 20.7007 97.7788 21.1196C97.6392 21.5278 97.5103 21.9307 97.3921 22.3281C97.2739 22.7256 97.1772 23.1016 97.1021 23.4561C97.0269 23.7998 96.9893 24.0952 96.9893 24.3423C96.9893 24.6646 97.043 24.9331 97.1504 25.1479C97.2578 25.3521 97.4404 25.4541 97.6982 25.4541C97.8594 25.4541 98.0474 25.4058 98.2622 25.3091C98.4878 25.2017 98.7295 25.062 98.9873 24.8901C99.2451 24.7183 99.5083 24.5249 99.7769 24.3101C100.056 24.0845 100.325 23.8589 100.583 23.6333C101.184 23.0962 101.823 22.4839 102.5 21.7964C102.672 21.6567 102.838 21.5869 103 21.5869C103.214 21.5869 103.392 21.6943 103.531 21.9092C103.682 22.1133 103.757 22.3442 103.757 22.6021C103.757 22.9028 103.655 23.1553 103.451 23.3594ZM107.398 18.606C107.817 18.3481 108.247 18.1118 108.688 17.897C109.139 17.6821 109.574 17.4995 109.993 17.3491C110.412 17.188 110.809 17.0645 111.185 16.9785C111.572 16.8818 111.916 16.8335 112.216 16.8335C112.7 16.8335 113.07 16.9517 113.328 17.188C113.597 17.4136 113.731 17.8003 113.731 18.3481C113.731 18.4663 113.726 18.5952 113.715 18.7349C113.704 18.8638 113.683 19.0034 113.65 19.1538C113.597 19.4331 113.436 19.7607 113.167 20.1367C112.898 20.5127 112.582 20.9048 112.216 21.313C111.862 21.7212 111.475 22.1348 111.056 22.5537C110.648 22.9619 110.267 23.3433 109.912 23.6978C109.568 24.0415 109.278 24.3423 109.042 24.6001C108.816 24.8579 108.704 25.0352 108.704 25.1318C108.704 25.2178 108.709 25.2769 108.72 25.3091C108.73 25.3413 108.779 25.3574 108.865 25.3574C109.445 25.1104 110.089 24.8149 110.798 24.4712C111.518 24.1167 112.232 23.7568 112.941 23.3916C113.65 23.0264 114.322 22.6719 114.956 22.3281C115.589 21.9736 116.126 21.6675 116.567 21.4097C116.664 21.356 116.76 21.313 116.857 21.2808C116.964 21.2378 117.061 21.2163 117.147 21.2163C117.34 21.2163 117.501 21.2808 117.63 21.4097C117.759 21.5386 117.824 21.7104 117.824 21.9253C117.824 22.1724 117.716 22.457 117.501 22.7793C117.297 23.0908 116.948 23.4185 116.454 23.7622C116.078 23.9985 115.654 24.2671 115.181 24.5679C114.719 24.8579 114.23 25.1641 113.715 25.4863C113.21 25.7979 112.694 26.104 112.168 26.4048C111.652 26.7056 111.153 26.9741 110.669 27.2104C110.186 27.4468 109.729 27.6401 109.3 27.7905C108.881 27.9302 108.516 28 108.204 28C107.463 28 106.904 27.8228 106.528 27.4683C106.163 27.1138 105.98 26.6572 105.98 26.0986C105.98 26.0127 105.986 25.9482 105.997 25.9053C106.072 25.4326 106.211 24.9761 106.416 24.5356C106.62 24.0952 106.851 23.6763 107.108 23.2788C107.366 22.8813 107.635 22.5054 107.914 22.1509C108.193 21.7856 108.446 21.4473 108.671 21.1357C108.908 20.8135 109.101 20.5181 109.251 20.2495C109.402 19.981 109.477 19.7339 109.477 19.5083C109.477 19.4546 109.466 19.4009 109.445 19.3472C109.423 19.2935 109.375 19.2666 109.3 19.2666C109.171 19.2666 108.956 19.3149 108.655 19.4116C108.365 19.5083 108.054 19.6372 107.721 19.7983C107.388 19.9595 107.071 20.1475 106.77 20.3623C106.469 20.5664 106.254 20.7866 106.125 21.0229C105.954 21.3237 105.755 21.7051 105.529 22.167C105.304 22.6289 105.067 23.1123 104.82 23.6172C104.584 24.1221 104.353 24.6216 104.127 25.1157C103.902 25.6099 103.708 26.0342 103.547 26.3887C103.418 26.7002 103.247 26.9795 103.032 27.2266C102.828 27.4736 102.602 27.6831 102.355 27.855C102.108 28.0269 101.855 28.1611 101.598 28.2578C101.34 28.3545 101.104 28.4028 100.889 28.4028C100.642 28.4028 100.443 28.3384 100.292 28.2095C100.153 28.0806 100.083 27.8711 100.083 27.5811C100.083 27.4629 100.099 27.3179 100.131 27.146C100.174 26.9634 100.255 26.7646 100.373 26.5498C100.566 26.1846 100.76 25.7871 100.953 25.3574C101.157 24.9277 101.388 24.439 101.646 23.8911C101.904 23.3325 102.199 22.6987 102.532 21.9897C102.876 21.27 103.279 20.4429 103.741 19.5083C103.59 19.3794 103.461 19.2236 103.354 19.041C103.257 18.8477 103.209 18.6113 103.209 18.332C103.209 18.0742 103.263 17.854 103.37 17.6714C103.478 17.478 103.623 17.3223 103.805 17.2041C103.988 17.0859 104.197 17 104.434 16.9463C104.681 16.8818 104.938 16.8496 105.207 16.8496C105.486 16.8496 105.766 16.8765 106.045 16.9302C106.324 16.9731 106.571 17.043 106.786 17.1396C107.012 17.2363 107.194 17.3545 107.334 17.4941C107.474 17.6338 107.543 17.7949 107.543 17.9775C107.543 18.0098 107.533 18.0527 107.511 18.1064C107.49 18.1602 107.463 18.2192 107.431 18.2837C107.409 18.3481 107.388 18.4072 107.366 18.4609C107.345 18.5146 107.334 18.5576 107.334 18.5898C107.334 18.6113 107.339 18.6221 107.35 18.6221H107.366L107.398 18.606ZM119.258 14.062C119.258 13.8149 119.301 13.5625 119.387 13.3047C119.483 13.0361 119.623 12.7944 119.806 12.5796C119.988 12.3647 120.214 12.1875 120.482 12.0479C120.762 11.9082 121.089 11.8384 121.465 11.8384C122.088 11.8384 122.523 11.9619 122.771 12.209C123.018 12.4453 123.141 12.7461 123.141 13.1113C123.141 13.3154 123.098 13.541 123.012 13.7881C122.937 14.0352 122.819 14.2661 122.658 14.481C122.497 14.6851 122.287 14.8569 122.029 14.9966C121.771 15.1362 121.465 15.2061 121.111 15.2061C120.445 15.2061 119.978 15.104 119.709 14.8999C119.44 14.6851 119.29 14.4058 119.258 14.062ZM117.485 17.6875C117.668 17.3867 117.877 17.1719 118.114 17.043C118.35 16.9141 118.592 16.8496 118.839 16.8496C119.247 16.8496 119.596 16.9839 119.886 17.2524C120.187 17.5103 120.337 17.8433 120.337 18.2515C120.327 18.3481 120.311 18.4448 120.289 18.5415C120.278 18.6382 120.246 18.7349 120.192 18.8315C120.042 19.1108 119.918 19.3472 119.822 19.5405C119.725 19.7339 119.634 19.9165 119.548 20.0884C119.473 20.2495 119.397 20.4106 119.322 20.5718C119.247 20.7329 119.156 20.9263 119.048 21.1519C118.919 21.4204 118.774 21.7158 118.613 22.0381C118.452 22.3496 118.296 22.6719 118.146 23.0049C118.006 23.3379 117.883 23.6655 117.775 23.9878C117.679 24.3101 117.63 24.6055 117.63 24.874C117.63 25.1641 117.7 25.3574 117.84 25.4541C117.99 25.54 118.2 25.583 118.468 25.583C118.769 25.583 119.081 25.5186 119.403 25.3896C119.736 25.2607 120.069 25.0942 120.402 24.8901C120.735 24.686 121.062 24.4551 121.385 24.1973C121.707 23.9287 122.008 23.6602 122.287 23.3916C122.577 23.123 122.84 22.8652 123.077 22.6182C123.324 22.3711 123.528 22.1509 123.689 21.9575C123.904 21.7534 124.119 21.6514 124.333 21.6514C124.527 21.6514 124.683 21.7373 124.801 21.9092C124.93 22.0811 124.994 22.3013 124.994 22.5698C124.994 22.8169 124.93 23.0801 124.801 23.3594C124.683 23.6387 124.484 23.9019 124.205 24.1489C123.657 24.7075 123.098 25.2446 122.529 25.7603C121.959 26.2651 121.374 26.7163 120.772 27.1138C120.182 27.5005 119.585 27.812 118.984 28.0483C118.382 28.2847 117.775 28.4028 117.163 28.4028C116.293 28.4028 115.605 28.1826 115.101 27.7422C114.606 27.291 114.359 26.5928 114.359 25.6475C114.359 25.1533 114.429 24.6699 114.569 24.1973C114.708 23.7246 114.875 23.2681 115.068 22.8276C115.262 22.3765 115.466 21.9468 115.681 21.5386C115.896 21.1196 116.078 20.7222 116.229 20.3462C116.282 20.2065 116.374 19.9917 116.502 19.7017C116.642 19.4116 116.787 19.1162 116.938 18.8154C117.109 18.4609 117.292 18.085 117.485 17.6875ZM127.911 19.041C127.513 19.8145 127.137 20.5718 126.783 21.313C126.428 22.0435 126.095 22.7202 125.784 23.3433C125.655 23.6011 125.526 23.9019 125.397 24.2456C125.279 24.5786 125.22 24.874 125.22 25.1318C125.22 25.2822 125.252 25.4004 125.316 25.4863C125.392 25.5723 125.51 25.6152 125.671 25.6152C125.896 25.6152 126.181 25.5508 126.525 25.4219C126.869 25.2822 127.239 25.105 127.637 24.8901C128.034 24.6646 128.453 24.4121 128.894 24.1328C129.334 23.8428 129.764 23.5474 130.183 23.2466C130.612 22.9351 131.021 22.6289 131.407 22.3281C131.794 22.0166 132.138 21.7319 132.438 21.4741C132.61 21.356 132.771 21.2969 132.922 21.2969C133.104 21.2969 133.255 21.3774 133.373 21.5386C133.491 21.6997 133.55 21.9038 133.55 22.1509C133.55 22.3979 133.491 22.6504 133.373 22.9082C133.255 23.166 133.04 23.4185 132.729 23.6655C132.03 24.2993 131.321 24.9009 130.602 25.4702C129.893 26.0396 129.184 26.5444 128.475 26.9849C127.776 27.4146 127.083 27.7583 126.396 28.0161C125.708 28.2739 125.042 28.4028 124.398 28.4028C123.968 28.4028 123.608 28.3438 123.318 28.2256C123.028 28.1182 122.792 27.9678 122.609 27.7744C122.438 27.5703 122.314 27.3394 122.239 27.0815C122.164 26.813 122.126 26.5283 122.126 26.2275C122.126 25.6904 122.217 25.1318 122.4 24.5518C122.583 23.9717 122.787 23.4507 123.012 22.9888C123.334 22.3228 123.651 21.6621 123.963 21.0068C124.285 20.3516 124.597 19.7231 124.897 19.1216H124.205C123.603 19.1216 123.189 19.0249 122.964 18.8315C122.738 18.6382 122.625 18.418 122.625 18.1709C122.625 18.0635 122.658 17.9346 122.722 17.7842C122.797 17.623 122.899 17.478 123.028 17.3491C123.168 17.2095 123.334 17.0913 123.528 16.9946C123.721 16.8979 123.941 16.8496 124.188 16.8496H125.929L129.329 10.0981C129.543 9.68994 129.807 9.3999 130.118 9.22803C130.44 9.04541 130.773 8.9541 131.117 8.9541C131.439 8.9541 131.735 9.04004 132.003 9.21191C132.272 9.38379 132.406 9.66846 132.406 10.0659C132.406 10.27 132.358 10.4795 132.261 10.6943C132.175 10.8984 132.057 11.1401 131.907 11.4194C131.81 11.6021 131.692 11.8223 131.552 12.0801C131.413 12.3271 131.262 12.5957 131.101 12.8857C130.951 13.165 130.79 13.4604 130.618 13.772C130.457 14.0835 130.295 14.3843 130.134 14.6743C129.769 15.3618 129.382 16.0869 128.974 16.8496H134.227C134.485 16.8496 134.721 16.8657 134.936 16.8979C135.151 16.9194 135.333 16.9731 135.484 17.0591C135.645 17.1343 135.769 17.2417 135.854 17.3813C135.94 17.521 135.983 17.709 135.983 17.9453C135.983 18.0635 135.962 18.1816 135.919 18.2998C135.887 18.418 135.817 18.5254 135.709 18.6221C135.613 18.7188 135.473 18.7993 135.291 18.8638C135.119 18.9282 134.893 18.9712 134.614 18.9927L127.911 19.041ZM141.349 17.7842C141.65 17.5479 141.902 17.3706 142.106 17.2524C142.321 17.1235 142.504 17.0322 142.654 16.9785C142.805 16.9141 142.939 16.8765 143.057 16.8657C143.186 16.855 143.315 16.8496 143.444 16.8496C143.669 16.8496 143.831 16.9355 143.927 17.1074C144.024 17.2686 144.072 17.4404 144.072 17.623C144.072 17.7734 144.045 17.9131 143.992 18.042L140.382 25.5669C140.898 25.1802 141.489 24.8042 142.155 24.439C142.832 24.063 143.476 23.73 144.088 23.4399C144.711 23.1392 145.243 22.8975 145.684 22.7148C146.135 22.5322 146.393 22.4409 146.457 22.4409C146.726 22.4409 146.962 22.543 147.166 22.7471C147.37 22.9512 147.472 23.209 147.472 23.5205C147.472 23.7998 147.365 24.0952 147.15 24.4067C146.946 24.7183 146.581 25.019 146.054 25.3091C145.302 25.728 144.647 26.0879 144.088 26.3887C143.53 26.6787 143.036 26.9419 142.606 27.1782C142.176 27.4146 141.795 27.6294 141.462 27.8228C141.129 28.0161 140.812 28.2148 140.511 28.4189C140.221 28.623 139.931 28.8379 139.641 29.0635C139.362 29.2998 139.056 29.5737 138.723 29.8853C138.476 30.5298 138.229 31.1475 137.981 31.7383C137.745 32.3291 137.525 32.8501 137.321 33.3013C137.127 33.7524 136.966 34.1177 136.837 34.397C136.708 34.6763 136.639 34.8267 136.628 34.8481C135.758 36.6528 134.802 37.5552 133.76 37.5552C133.33 37.5552 132.981 37.4102 132.712 37.1201C132.444 36.8408 132.31 36.4595 132.31 35.9761C132.31 35.5249 132.363 35.0737 132.471 34.6226C132.589 34.1821 132.788 33.6934 133.067 33.1562C133.357 32.6191 133.733 32.0176 134.195 31.3516C134.667 30.6963 135.258 29.9229 135.967 29.0312L139.19 22.5054C137.579 24.4175 136.118 25.8784 134.807 26.8882C133.497 27.8979 132.272 28.4028 131.133 28.4028C130.768 28.4028 130.457 28.3169 130.199 28.145C129.941 27.9839 129.812 27.71 129.812 27.3232C129.812 26.7861 129.941 26.1792 130.199 25.5024C130.349 25.1372 130.5 24.8042 130.65 24.5034C130.8 24.1919 130.956 23.8857 131.117 23.585C131.278 23.2734 131.445 22.9404 131.617 22.5859C131.799 22.2314 131.993 21.834 132.197 21.3936C132.412 20.9424 132.643 20.4268 132.89 19.8467C133.147 19.2559 133.432 18.5684 133.744 17.7842C133.958 17.3652 134.238 17.0645 134.582 16.8818C134.925 16.6885 135.258 16.5918 135.581 16.5918C135.914 16.5918 136.193 16.6724 136.418 16.8335C136.655 16.9839 136.773 17.188 136.773 17.4458C136.773 17.5747 136.751 17.6875 136.708 17.7842L133.76 23.9233C133.609 24.2349 133.534 24.4819 133.534 24.6646C133.534 24.8257 133.599 24.9062 133.728 24.9062C133.846 24.9062 133.996 24.8472 134.179 24.729C134.361 24.6108 134.533 24.4766 134.694 24.3262L141.349 17.7842Z" fill="white"></path><defs><linearGradient id="paint0_linear_2476_1580" x1="8.94873" y1="9.00743" x2="34.8751" y2="9" gradientUnits="userSpaceOnUse"><stop stop-color="white" stop-opacity="0"></stop><stop offset="1" stop-color="white"></stop></linearGradient><linearGradient id="paint1_linear_2476_1580" x1="9.5625" y1="27" x2="36" y2="27" gradientUnits="userSpaceOnUse"><stop stop-color="white"></stop><stop offset="1" stop-color="white" stop-opacity="0"></stop></linearGradient><clipPath id="clip0_2476_1580"><rect width="45" height="36" fill="white"></rect></clipPath></defs></svg>